<?xml version="1.0" encoding="UTF-8" standalone="no"?>
<svg viewBox="0 0 20 20" version="1.1" xmlns="http://www.w3.org/2000/svg" xmlns:xlink="http://www.w3.org/1999/xlink">
    <!-- Generator: sketchtool 39.1 (31720) - http://www.bohemiancoding.com/sketch -->
    <title>2157D77D-0863-4065-A03D-FE7204C5C181</title>
    <desc>Created with sketchtool.</desc>
    <defs></defs>
    <g id="Tweet" stroke="none" stroke-width="1" fill="none" fill-rule="evenodd">
        <g id="Tweets-Flow" transform="translate(-136.000000, -460.000000)" stroke="#CCCCCC">
            <g id="Group-16" transform="translate(18.000000, 194.000000)">
                <g id="Group-11">
                    <g id="Group-3" transform="translate(50.000000, 50.000000)">
                        <g id="Group" transform="translate(0.000000, 216.000000)">
                            <g id="like-copy" transform="translate(68.000000, 0.000000)">
                                <g id="comment">
                                    <path d="M6.19011707,5.00000047 C4.9800725,5.00000047 3.99912813,5.98094484 3.99912813,7.19095981 L3.99912817,11.7750244 L2.94517254,15.8093254 C2.93605354,15.8346988 2.93081307,15.8619078 2.93081307,15.8904195 C2.93081307,16.0229115 3.03822784,16.1303559 3.17074948,16.1303559 C3.2022515,16.1303559 3.23224355,16.1241088 3.25977821,16.1130949 L7.36889653,15.0120639 L13.8090407,15.0120634 C15.0190853,15.0120634 16,14.031119 16,12.8211041 L16,7.19095934 C16,5.98094438 15.0190852,5 13.8090407,5 L6.19011707,5.00000047 Z" id="Fill-1"></path>
                                </g>
                            </g>
                        </g>
                    </g>
                </g>
            </g>
        </g>
    </g>
</svg>