<?xml version="1.0" encoding="UTF-8" standalone="no"?>
<svg viewBox="0 0 20 20" version="1.1" xmlns="http://www.w3.org/2000/svg" xmlns:xlink="http://www.w3.org/1999/xlink">
    <!-- Generator: sketchtool 39.1 (31720) - http://www.bohemiancoding.com/sketch -->
    <title>092C6BE0-3213-4700-84B7-3DE04757144D</title>
    <desc>Created with sketchtool.</desc>
    <defs></defs>
    <g id="Tweet" stroke="none" stroke-width="1" fill="none" fill-rule="evenodd">
        <g id="Tweets-Flow" transform="translate(-204.000000, -460.000000)" stroke="#CCCCCC">
            <g id="Group-16" transform="translate(18.000000, 194.000000)">
                <g id="Group-11">
                    <g id="Group-3" transform="translate(50.000000, 50.000000)">
                        <g id="Group" transform="translate(0.000000, 216.000000)">
                            <g id="like-copy-2" transform="translate(136.000000, 0.000000)">
                                <g id="retweet">
                                    <g id="Group-2" transform="translate(1.000000, 4.500000)">
                                        <path d="M13.8974241,10.6201404 C13.8974241,10.6201404 13.5847437,11.0220377 12.8321357,11.0220377 L5.21453867,11.0220372 C3.99608993,11.0220372 3.00850253,10.0537925 3.00850253,8.85920807 L3.00850253,2.30158124" id="Stroke-1"></path>
                                        <path d="M5.79179862,4.68729802 C5.79179862,4.68729802 3.46958308,2.26130308 3.46496585,2.25616456 C3.19055283,1.95641734 2.80744778,1.99348811 2.53939904,2.25616456 C2.38515871,2.40738397 0.124464591,4.68729802 0.124464591,4.68729802" id="Stroke-3"></path>
                                        <path d="M4.36816406,0.894443526 C4.36816406,0.894443526 4.71588882,0.500048938 5.46849681,0.500048938 L12.8039126,0.472858264 C14.0223613,0.472858264 15.0099487,1.44110296 15.0099487,2.63568738 L15.0099487,9.11132844" id="Stroke-5"></path>
                                        <path d="M12.2078666,6.92643257 C12.2078666,6.92643257 14.5300822,9.26140224 14.5346994,9.26641841 C14.8091124,9.56628798 15.1922175,9.5292172 15.4602662,9.26641841 C15.6145066,9.115199 17.8752007,6.92643257 17.8752007,6.92643257" id="Stroke-7"></path>
                                    </g>
                                </g>
                            </g>
                        </g>
                    </g>
                </g>
            </g>
        </g>
    </g>
</svg>